<?xml version="1.0" encoding="iso-8859-1"?>
<!-- Generator: Adobe Illustrator 19.0.0, SVG Export Plug-In . SVG Version: 6.00 Build 0)  -->
<svg version="1.1" id="Capa_1" xmlns="http://www.w3.org/2000/svg" xmlns:xlink="http://www.w3.org/1999/xlink" x="0px" y="0px"
	 viewBox="0 0 512 512" style="enable-background:new 0 0 512 512;" xml:space="preserve">
<rect x="35.31" y="158.897" style="fill:#EBEBEB;" width="441.379" height="300.138"/>
<polygon style="fill:#E0E0E0;" points="111.316,459.034 476.69,459.034 476.69,158.897 431.669,158.897 "/>
<g>
	<rect y="459.034" style="fill:#D1D1D1;" width="512" height="35.31"/>
	<polyline style="fill:#D1D1D1;" points="35.31,52.966 35.31,17.655 476.69,17.655 476.69,52.966 	"/>
</g>
<g>
	<rect x="70.621" y="264.828" style="fill:#4398D1;" width="247.172" height="141.241"/>
	<rect x="353.103" y="264.828" style="fill:#4398D1;" width="88.276" height="194.207"/>
</g>
<g>
	
		<rect x="116.265" y="308.971" transform="matrix(-0.7071 0.7071 -0.7071 -0.7071 465.8407 442.639)" style="fill:#87CED9;" width="49.964" height="17.655"/>
	
		<rect x="124.825" y="322.199" transform="matrix(-0.7071 0.7071 -0.7071 -0.7071 543.0768 437.1023)" style="fill:#87CED9;" width="112.374" height="17.655"/>
	
		<rect x="195.782" y="344.217" transform="matrix(-0.7071 0.7071 -0.7071 -0.7071 626.5082 446.5806)" style="fill:#87CED9;" width="49.964" height="17.655"/>
</g>
<path style="fill:#FFA83D;" d="M220.69,158.897v17.655c0,19.5,15.81,35.31,35.31,35.31s35.31-15.81,35.31-35.31v-17.655H220.69z"/>
<path style="fill:#C74436;" d="M150.069,158.897v17.655c0,19.5,15.81,35.31,35.31,35.31s35.31-15.81,35.31-35.31v-17.655H150.069z"
	/>
<path style="fill:#FFA83D;" d="M79.448,158.897v17.655c0,19.5,15.81,35.31,35.31,35.31s35.31-15.81,35.31-35.31v-17.655H79.448z"/>
<g>
	<path style="fill:#C74436;" d="M8.828,158.897v17.655c0,19.5,15.81,35.31,35.31,35.31s35.31-15.81,35.31-35.31v-17.655H8.828z"/>
	<path style="fill:#C74436;" d="M432.552,158.897v17.655c0,19.5,15.81,35.31,35.31,35.31c19.5,0,35.31-15.81,35.31-35.31v-17.655
		H432.552z"/>
</g>
<path style="fill:#FFA83D;" d="M361.931,158.897v17.655c0,19.5,15.81,35.31,35.31,35.31c19.5,0,35.31-15.81,35.31-35.31v-17.655
	H361.931z"/>
<path style="fill:#C74436;" d="M291.31,158.897v17.655c0,19.5,15.81,35.31,35.31,35.31c19.5,0,35.31-15.81,35.31-35.31v-17.655
	H291.31z"/>
<polygon style="fill:#FDB62F;" points="97.103,52.966 79.448,158.897 150.069,158.897 158.897,52.966 "/>
<g>
	<polygon style="fill:#DE4C3C;" points="35.31,52.966 8.828,158.897 79.448,158.897 97.103,52.966 	"/>
	<polygon style="fill:#DE4C3C;" points="158.897,52.966 150.069,158.897 220.69,158.897 220.69,52.966 	"/>
	<polygon style="fill:#DE4C3C;" points="476.69,52.966 414.897,52.966 432.552,158.897 503.172,158.897 	"/>
</g>
<g>
	<rect x="220.69" y="52.966" style="fill:#FDB62F;" width="70.621" height="105.931"/>
	<polygon style="fill:#FDB62F;" points="353.103,52.966 361.931,158.897 432.552,158.897 414.897,52.966 	"/>
</g>
<polygon style="fill:#DE4C3C;" points="291.31,52.966 291.31,158.897 361.931,158.897 353.103,52.966 "/>
<g>
</g>
<g>
</g>
<g>
</g>
<g>
</g>
<g>
</g>
<g>
</g>
<g>
</g>
<g>
</g>
<g>
</g>
<g>
</g>
<g>
</g>
<g>
</g>
<g>
</g>
<g>
</g>
<g>
</g>
</svg>
