<?xml version="1.0" encoding="iso-8859-1"?>
<!-- Generator: Adobe Illustrator 19.0.0, SVG Export Plug-In . SVG Version: 6.00 Build 0)  -->
<svg version="1.1" id="Capa_1" xmlns="http://www.w3.org/2000/svg" xmlns:xlink="http://www.w3.org/1999/xlink" x="0px" y="0px"
	 viewBox="0 0 512 512" style="enable-background:new 0 0 512 512;" xml:space="preserve">
<rect x="42.667" y="162.133" style="fill:#EBEBEB;" width="426.667" height="290.133"/>
<polygon style="fill:#E0E0E0;" points="116.139,452.267 469.333,452.267 469.333,162.133 425.813,162.133 "/>
<g>
	<rect x="8.533" y="452.267" style="fill:#D1D1D1;" width="494.933" height="34.133"/>
	<polyline style="fill:#D1D1D1;" points="42.667,59.733 42.667,25.6 469.333,25.6 469.333,59.733 	"/>
</g>
<g>
	<rect x="76.8" y="264.533" style="fill:#4398D1;" width="238.933" height="136.533"/>
	<rect x="349.867" y="264.533" style="fill:#4398D1;" width="85.333" height="187.733"/>
</g>
<g>
	
		<rect x="120.959" y="307.205" transform="matrix(-0.7071 0.7071 -0.7071 -0.7071 470.9751 436.3924)" style="fill:#87CED9;" width="48.298" height="17.067"/>
	
		<rect x="129.199" y="319.992" transform="matrix(-0.7071 0.7071 -0.7071 -0.7071 545.5784 431.0644)" style="fill:#87CED9;" width="108.628" height="17.067"/>
	
		<rect x="197.791" y="341.276" transform="matrix(-0.7071 0.7071 -0.7071 -0.7071 626.2288 440.2267)" style="fill:#87CED9;" width="48.298" height="17.067"/>
</g>
<path style="fill:#FFA83D;" d="M221.867,162.133V179.2c0,18.85,15.283,34.133,34.133,34.133c18.85,0,34.133-15.283,34.133-34.133
	v-17.067H221.867z"/>
<path style="fill:#C74436;" d="M153.6,162.133V179.2c0,18.85,15.283,34.133,34.133,34.133s34.133-15.283,34.133-34.133v-17.067
	H153.6z"/>
<path style="fill:#FFA83D;" d="M85.333,162.133V179.2c0,18.85,15.283,34.133,34.133,34.133S153.6,198.05,153.6,179.2v-17.067H85.333
	z"/>
<g>
	<path style="fill:#C74436;" d="M17.067,162.133V179.2c0,18.85,15.283,34.133,34.133,34.133S85.333,198.05,85.333,179.2v-17.067
		H17.067z"/>
	<path style="fill:#C74436;" d="M426.667,162.133V179.2c0,18.85,15.283,34.133,34.133,34.133s34.133-15.283,34.133-34.133v-17.067
		H426.667z"/>
</g>
<path style="fill:#FFA83D;" d="M358.4,162.133V179.2c0,18.85,15.283,34.133,34.133,34.133s34.133-15.283,34.133-34.133v-17.067
	H358.4z"/>
<path style="fill:#C74436;" d="M290.133,162.133V179.2c0,18.85,15.283,34.133,34.133,34.133S358.4,198.05,358.4,179.2v-17.067
	H290.133z"/>
<polygon style="fill:#FDB62F;" points="102.4,59.733 85.333,162.133 153.6,162.133 162.133,59.733 "/>
<g>
	<polygon style="fill:#DE4C3C;" points="42.667,59.733 17.067,162.133 85.333,162.133 102.4,59.733 	"/>
	<polygon style="fill:#DE4C3C;" points="162.133,59.733 153.6,162.133 221.867,162.133 221.867,59.733 	"/>
	<polygon style="fill:#DE4C3C;" points="469.333,59.733 409.6,59.733 426.667,162.133 494.933,162.133 	"/>
</g>
<g>
	<rect x="221.867" y="59.733" style="fill:#FDB62F;" width="68.267" height="102.4"/>
	<polygon style="fill:#FDB62F;" points="349.867,59.733 358.4,162.133 426.667,162.133 409.6,59.733 	"/>
</g>
<polygon style="fill:#DE4C3C;" points="290.133,59.733 290.133,162.133 358.4,162.133 349.867,59.733 "/>
<path d="M503.467,443.733h-25.6V218.283c15.539-6.784,25.591-22.127,25.6-39.083v-17.067l0,0c0.085-0.683,0.085-1.365,0-2.048
	l-25.6-101.376V25.6c0-4.71-3.823-8.533-8.533-8.533H42.667c-4.71,0-8.533,3.823-8.533,8.533v33.109l-25.6,101.376
	c-0.085,0.683-0.085,1.365,0,2.048l0,0V179.2c0.009,16.956,10.061,32.299,25.6,39.083v225.451h-25.6
	c-4.71,0-8.533,3.823-8.533,8.533V486.4c0,4.71,3.823,8.533,8.533,8.533h494.933c4.71,0,8.533-3.823,8.533-8.533v-34.133
	C512,447.556,508.177,443.733,503.467,443.733z M460.8,204.8c-14.14,0-25.6-11.46-25.6-25.6v-8.533h51.2v8.533
	C486.4,193.34,474.94,204.8,460.8,204.8z M152.832,68.267l-7.083,85.333H95.403l14.251-85.333H152.832z M402.347,68.267
	l14.251,85.333h-50.347l-7.083-85.333H402.347z M342.016,68.267l7.083,85.333h-50.432V68.267H342.016z M281.6,153.6h-51.2V68.267
	h51.2V153.6z M213.333,153.6h-50.432l7.083-85.333h43.349V153.6z M93.867,170.667h51.2v8.533c0,14.14-11.46,25.6-25.6,25.6
	s-25.6-11.46-25.6-25.6V170.667z M162.133,170.667h51.2v8.533c0,14.14-11.46,25.6-25.6,25.6c-14.14,0-25.6-11.46-25.6-25.6V170.667z
	 M230.4,170.667h51.2v8.533c0,14.14-11.46,25.6-25.6,25.6c-14.14,0-25.6-11.46-25.6-25.6V170.667z M298.667,170.667h51.2v8.533
	c0,14.14-11.46,25.6-25.6,25.6c-14.14,0-25.6-11.46-25.6-25.6V170.667z M366.933,170.667h51.2v8.533c0,14.14-11.46,25.6-25.6,25.6
	s-25.6-11.46-25.6-25.6V170.667z M433.92,153.6l-14.251-85.333h42.667l21.333,85.333H433.92z M460.8,34.133V51.2H51.2V34.133H460.8z
	 M49.323,68.267h42.667L78.08,153.6H27.989L49.323,68.267z M25.6,179.2v-8.533h51.2v8.533c0,14.14-11.46,25.6-25.6,25.6
	S25.6,193.34,25.6,179.2z M51.2,221.867c13.431,0,26.078-6.323,34.133-17.067c14.14,18.85,40.883,22.673,59.733,8.533
	c3.234-2.423,6.11-5.299,8.533-8.533c14.14,18.85,40.883,22.673,59.733,8.533c3.234-2.423,6.11-5.299,8.533-8.533
	c14.14,18.85,40.883,22.673,59.733,8.533c3.234-2.423,6.11-5.299,8.533-8.533c14.14,18.85,40.883,22.673,59.733,8.533
	c3.234-2.423,6.11-5.299,8.533-8.533c14.14,18.85,40.883,22.673,59.733,8.533c3.234-2.423,6.11-5.299,8.533-8.533
	c8.055,10.743,20.702,17.067,34.133,17.067v221.867h-17.067v-179.2c0-4.71-3.823-8.533-8.533-8.533h-85.333
	c-4.71,0-8.533,3.823-8.533,8.533v179.2H51.2V221.867z M426.667,443.733H358.4V273.067h68.267V443.733z M494.933,477.867H17.067
	V460.8h477.867V477.867z"/>
<path d="M315.733,256H76.8c-4.71,0-8.533,3.823-8.533,8.533v136.533c0,4.71,3.823,8.533,8.533,8.533h238.933
	c4.71,0,8.533-3.823,8.533-8.533V264.533C324.267,259.823,320.444,256,315.733,256z M307.2,392.533H85.333V273.067H307.2V392.533z"
	/>
<rect x="120.959" y="307.205" transform="matrix(-0.7071 0.7071 -0.7071 -0.7071 470.9751 436.3924)" width="48.298" height="17.067"/>
<rect x="129.199" y="319.992" transform="matrix(-0.7071 0.7071 -0.7071 -0.7071 545.5784 431.0644)" width="108.628" height="17.067"/>
<rect x="197.791" y="341.276" transform="matrix(-0.7071 0.7071 -0.7071 -0.7071 626.2288 440.2267)" width="48.298" height="17.067"/>
<g>
</g>
<g>
</g>
<g>
</g>
<g>
</g>
<g>
</g>
<g>
</g>
<g>
</g>
<g>
</g>
<g>
</g>
<g>
</g>
<g>
</g>
<g>
</g>
<g>
</g>
<g>
</g>
<g>
</g>
</svg>
