<svg id="Capa_1" enable-background="new 0 0 512 512" height="512" viewBox="0 0 512 512" width="512" xmlns="http://www.w3.org/2000/svg"><g><path d="m141.803 71.695h365.029c3.34 0 5.802 3.122 5.023 6.37l-45.681 190.349c-.556 2.317-2.625 3.953-5.008 3.96l-269.971.767z" fill="#eaeaea"/><path d="m186.613 254.452 4.583 18.689 269.971-.767c2.383-.007 4.452-1.643 5.008-3.96l3.509-14.623z" fill="#cbcbcb"/><path d="m484.93 380.061h-319.644c-30.622 0-55.535-24.913-55.535-55.536 0-26.142 18.157-48.123 42.522-53.996l-54.636-222.827c-.292-1.191-1.353-2.023-2.58-2.023h-76.466c-10.268-.001-18.591-8.324-18.591-18.592 0-10.267 8.323-18.59 18.591-18.59h76.467c18.399 0 34.31 12.481 38.692 30.351l57.447 234.293c1.964 8.012.171 16.329-4.92 22.818-5.091 6.49-12.742 10.212-20.99 10.212-10.12 0-18.354 8.234-18.354 18.354 0 10.121 8.233 18.354 18.354 18.354h319.643c10.267 0 18.591 8.323 18.591 18.591-.001 10.268-8.324 18.591-18.591 18.591z" fill="#dd636e"/><g><g fill="#da4a54"><path d="m484.93 361.43h-319.644c-27.458 0-50.311-20.035-54.744-46.251-.517 3.04-.791 6.161-.791 9.346 0 30.623 24.913 55.536 55.535 55.536h319.644c10.267 0 18.591-8.323 18.591-18.591 0-3.399-.927-6.574-2.52-9.315-3.219 5.54-9.203 9.275-16.071 9.275z"/><path d="m95.057 32.223c0-2.858-2.317-5.175-5.175-5.175h-71.291c-6.869 0-12.853-3.735-16.071-9.275-1.821 3.135-2.772 6.837-2.461 10.792.766 9.76 9.262 17.114 19.052 17.114h75.948v-13.456z"/></g></g><ellipse cx="414.265" cy="441.782" fill="#8c808a" rx="61.721" ry="61.721" transform="matrix(.987 -.16 .16 .987 -65.416 72.062)"/><path d="m414.265 484.872c-30.921 0-56.529-22.738-61.021-52.406-.46 3.038-.7 6.149-.7 9.315 0 34.088 27.633 61.721 61.721 61.721s61.721-27.633 61.721-61.721c0-3.167-.24-6.277-.7-9.315-4.492 29.668-30.1 52.406-61.021 52.406z" fill="#7b7179"/><ellipse cx="219.936" cy="441.782" fill="#8c808a" rx="61.721" ry="61.721" transform="matrix(.707 -.707 .707 .707 -247.969 284.913)"/><path d="m219.936 484.872c-30.921 0-56.529-22.738-61.021-52.406-.46 3.038-.7 6.149-.7 9.315 0 34.088 27.633 61.721 61.721 61.721 34.087 0 61.721-27.633 61.721-61.721 0-3.167-.241-6.277-.701-9.315-4.491 29.668-30.099 52.406-61.02 52.406z" fill="#7b7179"/><path d="" fill="none"/><ellipse cx="219.936" cy="441.782" fill="#f9ef63" rx="29.888" ry="29.888" transform="matrix(.707 -.707 .707 .707 -247.969 284.913)"/><path d="m219.936 453.04c-13.253 0-24.484-8.629-28.4-20.573-.961 2.932-1.488 6.062-1.488 9.316 0 16.507 13.382 29.888 29.888 29.888 16.507 0 29.888-13.382 29.888-29.888 0-3.254-.527-6.383-1.488-9.316-3.916 11.943-15.147 20.573-28.4 20.573z" fill="#f1d333"/><ellipse cx="414.265" cy="441.782" fill="#f9ef63" rx="29.888" ry="29.888" transform="matrix(.973 -.23 .23 .973 -90.419 106.997)"/><path d="m414.265 453.04c-13.253 0-24.484-8.629-28.4-20.573-.961 2.932-1.488 6.062-1.488 9.316 0 16.507 13.382 29.888 29.888 29.888 16.507 0 29.889-13.382 29.889-29.888 0-3.254-.527-6.383-1.488-9.316-3.917 11.943-15.148 20.573-28.401 20.573z" fill="#f1d333"/><path d="m495.417 146.561 3.719-15.495h-58.438l11.614-59.371h-15.789l-11.614 59.371h-48.601l5.156-59.371h-15.554l-5.156 59.371h-65.92l-5.156-59.371h-15.553l5.156 59.371h-48.6l-11.614-59.371h-15.789l11.614 59.371h-58.532l3.799 15.495h57.763l10.028 51.263h-55.222l3.799 15.495h54.454l11.673 59.675 15.781-.045-11.665-59.63h39.653l5.17 59.536 15.55-.044-5.166-59.492h51.635l-5.156 59.374 15.557-.044 5.152-59.33h39.653l-11.587 59.236 15.798-.045 11.579-59.191h54.789l3.719-15.495h-55.476l10.028-51.263zm-251.677 51.263-10.028-51.263h46.915l4.452 51.263zm111.218 0h-54.326l-4.452-51.263h63.229zm56.892 0h-41.339l4.452-51.263h46.915z" fill="#8c808a"/></g></svg>